<svg
  x="392"
  y="252.0881"
  width="190"
  height="190.0023"
  viewBox="11.111000061035156 11.112000465393066 77.7750015258789 77.7760009765625"
  preserveAspectRatio="none"
  xmlns="http://www.w3.org/2000/svg"
>
  <g
    transform="matrix(1 0 0 1 0 0)"
    class="icon183bf3ec2-56af-478b-8707-c59d6fe69165"
  >
    <path
      fill-rule="evenodd"
      clip-rule="evenodd"
      d="M50,11.112L50,11.112c-21.389,0-38.889,17.499-38.889,38.887V50  c0,21.388,17.5,38.888,38.888,38.888H50c21.388,0,38.886-17.5,38.886-38.888v-0.001C88.887,28.611,71.389,11.112,50,11.112z   M51.943,33.344c1.404-5.331,5.152-8.964,8.373-8.116c3.221,0.849,4.693,5.857,3.289,11.188s-5.152,8.963-8.373,8.115  C52.014,43.683,50.54,38.674,51.943,33.344z M41.374,24.974c3.278-0.584,6.72,3.342,7.688,8.769  c0.967,5.427-0.908,10.299-4.186,10.883c-3.279,0.585-6.721-3.341-7.688-8.768S38.094,25.559,41.374,24.974z M26.52,49.751  c-1.525-4.166-0.182-8.309,2.999-9.252c3.181-0.942,6.997,1.671,8.522,5.838s0.183,8.309-2.999,9.252S28.045,53.918,26.52,49.751z   M68.83,66.235c0,4.712-4.129,10.148-8.568,8.568c-7.336-2.612-14.669-2.466-22.003,0c-4.467,1.501-8.568-3.856-8.568-8.568v-0.001  c0-4.962,3.23-7.604,7.399-8.347c1.515-0.271,2.696-1.192,3.325-2.597c1.541-3.434,4.922-5.817,8.846-5.817  c3.923,0,7.304,2.384,8.843,5.817c0.631,1.404,1.811,2.326,3.326,2.597C65.598,58.631,68.83,61.272,68.83,66.235L68.83,66.235z   M73.479,50.28c-1.525,4.167-5.34,6.78-8.521,5.838c-3.182-0.943-4.523-5.086-2.998-9.252c1.525-4.167,5.34-6.781,8.521-5.838  S75.004,46.114,73.479,50.28z"
    ></path>
  </g>
</svg>