<svg
  width="78"
  height="78"
  viewBox="0.111000061035156 0.112000465393066 77.7750015258789 77.7760009765625"
  xmlns="http://www.w3.org/2000/svg"
  preserveAspectRatio="none"
>
  <g transform="matrix(1 0 0 1 0 0)">
    <path
      d="m39.000035,0.112027l0,0c-21.389,0 -38.889,17.499 -38.889,38.887l0,0.001c0,21.388 17.5,38.888 38.888,38.888l0.001,0c21.388,0 38.886,-17.5 38.886,-38.888l0,-0.001c0.001,-21.388 -17.497,-38.887 -38.886,-38.887zm1.943,22.232c1.404,-5.331 5.152,-8.964 8.373,-8.116c3.221,0.849 4.693,5.857 3.289,11.188s-5.152,8.963 -8.373,8.115c-3.218,-0.848 -4.692,-5.857 -3.289,-11.187zm-10.569,-8.37c3.278,-0.584 6.72,3.342 7.688,8.769c0.967,5.427 -0.908,10.299 -4.186,10.883c-3.279,0.585 -6.721,-3.341 -7.688,-8.768s0.906,-10.299 4.186,-10.884zm-14.854,24.777c-1.525,-4.166 -0.182,-8.309 2.999,-9.252c3.181,-0.942 6.997,1.671 8.522,5.838s0.183,8.309 -2.999,9.252s-6.997,-1.671 -8.522,-5.838zm42.31,16.484c0,4.712 -4.129,10.148 -8.568,8.568c-7.336,-2.612 -14.669,-2.466 -22.003,0c-4.467,1.501 -8.568,-3.856 -8.568,-8.568l0,-0.001c0,-4.962 3.23,-7.604 7.399,-8.347c1.515,-0.271 2.696,-1.192 3.325,-2.597c1.541,-3.434 4.922,-5.817 8.846,-5.817c3.923,0 7.304,2.384 8.843,5.817c0.631,1.404 1.811,2.326 3.326,2.597c4.168,0.744 7.4,3.385 7.4,8.348l0,0zm4.649,-15.955c-1.525,4.167 -5.34,6.78 -8.521,5.838c-3.182,-0.943 -4.523,-5.086 -2.998,-9.252c1.525,-4.167 5.34,-6.781 8.521,-5.838s4.523,5.086 2.998,9.252z"
      clip-rule="evenodd"
      fill-rule="evenodd"
    />
  </g>
</svg>